<svg width="38" height="38" viewBox="0 0 38 38" fill="none" xmlns="http://www.w3.org/2000/svg">
<circle cx="18.75" cy="18.75" r="18.75" fill="#01B717"/>
<path d="M15.0055 29.0185C14.455 29.0185 13.9836 28.8223 13.5912 28.43C13.1989 28.0376 13.003 27.5665 13.0037 27.0166C13.0037 26.4661 13.1999 25.9947 13.5922 25.6023C13.9846 25.21 14.4557 25.0141 15.0055 25.0148C15.5561 25.0148 16.0275 25.211 16.4199 25.6033C16.8122 25.9957 17.0081 26.4668 17.0074 27.0166C17.0074 27.5672 16.8112 28.0386 16.4189 28.431C16.0265 28.8233 15.5554 29.0192 15.0055 29.0185ZM25.0148 29.0185C24.4643 29.0185 23.9929 28.8223 23.6005 28.43C23.2081 28.0376 23.0123 27.5665 23.0129 27.0166C23.0129 26.4661 23.2091 25.9947 23.6015 25.6023C23.9939 25.21 24.465 25.0141 25.0148 25.0148C25.5653 25.0148 26.0367 25.211 26.4291 25.6033C26.8215 25.9957 27.0173 26.4668 27.0166 27.0166C27.0166 27.5672 26.8205 28.0386 26.4281 28.431C26.0357 28.8233 25.5646 29.0192 25.0148 29.0185ZM13.2039 11.0018H27.9675C28.3512 11.0018 28.6432 11.173 28.8433 11.5153C29.0435 11.8576 29.0519 12.2036 28.8684 12.5533L25.3151 18.9592C25.1316 19.2928 24.8853 19.5514 24.5764 19.7349C24.2674 19.9184 23.9298 20.0102 23.5635 20.0102H16.1066L15.0055 22.012H27.0166V24.0139H15.0055C14.2549 24.0139 13.6877 23.6842 13.304 23.025C12.9203 22.3657 12.9036 21.7111 13.2539 21.0611L14.6052 18.6089L11.0018 11.0018H9V9H12.253L13.2039 11.0018Z" fill="white"/>
</svg>
