<svg width="21" height="18" viewBox="0 0 21 18" fill="none" xmlns="http://www.w3.org/2000/svg">
<path d="M6.3 18C5.66667 18 5.125 17.7707 4.675 17.312C4.225 16.8533 4 16.3077 4 15.675V6.4L2.175 2H0V0H3.525L5.175 4H19.95C20.3333 4 20.625 4.15833 20.825 4.475C21.025 4.79167 21.0333 5.11667 20.85 5.45L18 11.025C18.85 11.1583 19.5627 11.55 20.138 12.2C20.7133 12.85 21.0007 13.6167 21 14.5C21 15.4667 20.6627 16.2917 19.988 16.975C19.3133 17.6583 18.492 18 17.524 18C16.5407 18 15.7117 17.6583 15.037 16.975C14.3623 16.2917 14.025 15.4667 14.025 14.5C14.025 14.1667 14.0667 13.8583 14.15 13.575C14.2333 13.2917 14.35 13.0167 14.5 12.75L11.225 12.45L8.225 16.95C8.00833 17.2833 7.729 17.5417 7.387 17.725C7.045 17.9083 6.68267 18 6.3 18ZM15.85 10.875L18.325 6L6 6.025L7.25 9C7.38333 9.33333 7.596 9.61267 7.888 9.838C8.18 10.0633 8.51733 10.1923 8.9 10.225L15.85 10.875ZM6.325 15.975C6.35833 15.975 6.43333 15.9333 6.55 15.85L8.975 12.25C8.15833 12.1667 7.51667 11.971 7.05 11.663C6.58333 11.355 6.23333 11.034 6 10.7V15.7C6 15.7833 6.03333 15.85 6.1 15.9C6.16667 15.95 6.24167 15.975 6.325 15.975ZM17.5 16C17.9333 16 18.2917 15.854 18.575 15.562C18.8583 15.27 19 14.916 19 14.5C19 14.0667 18.8583 13.7083 18.575 13.425C18.2917 13.1417 17.9333 13 17.5 13C17.0833 13 16.729 13.1417 16.437 13.425C16.145 13.7083 15.9993 14.0667 16 14.5C16 14.9167 16.146 15.271 16.438 15.563C16.73 15.855 17.084 16.0007 17.5 16Z" fill="black"/>
</svg>
