<svg width="39" height="39" viewBox="0 0 39 39" fill="none" xmlns="http://www.w3.org/2000/svg">
<path fill-rule="evenodd" clip-rule="evenodd" d="M19.5 38.25C29.8556 38.25 38.25 29.8556 38.25 19.5C38.25 9.14438 29.8556 0.75 19.5 0.75C9.14438 0.75 0.75 9.14438 0.75 19.5C0.75 29.8556 9.14438 38.25 19.5 38.25ZM20.9062 8.25C20.9062 7.87704 20.7581 7.51935 20.4944 7.25563C20.2306 6.99191 19.873 6.84375 19.5 6.84375C19.127 6.84375 18.7694 6.99191 18.5056 7.25563C18.2419 7.51935 18.0938 7.87704 18.0938 8.25V8.84437C15.0375 9.39188 12.4688 11.6888 12.4688 14.8125C12.4688 18.4069 15.8681 20.9062 19.5 20.9062C22.0819 20.9062 23.7188 22.605 23.7188 24.1875C23.7188 25.77 22.0819 27.4688 19.5 27.4688C16.9181 27.4688 15.2812 25.77 15.2812 24.1875C15.2812 23.8145 15.1331 23.4569 14.8694 23.1931C14.6056 22.9294 14.248 22.7812 13.875 22.7812C13.502 22.7812 13.1444 22.9294 12.8806 23.1931C12.6169 23.4569 12.4688 23.8145 12.4688 24.1875C12.4688 27.3113 15.0375 29.6081 18.0938 30.1556V30.75C18.0938 31.123 18.2419 31.4806 18.5056 31.7444C18.7694 32.0081 19.127 32.1562 19.5 32.1562C19.873 32.1562 20.2306 32.0081 20.4944 31.7444C20.7581 31.4806 20.9062 31.123 20.9062 30.75V30.1556C23.9625 29.6081 26.5312 27.3113 26.5312 24.1875C26.5312 20.5931 23.1319 18.0938 19.5 18.0938C16.9181 18.0938 15.2812 16.395 15.2812 14.8125C15.2812 13.23 16.9181 11.5312 19.5 11.5312C22.0819 11.5312 23.7188 13.23 23.7188 14.8125C23.7188 15.1855 23.8669 15.5431 24.1306 15.8069C24.3944 16.0706 24.752 16.2188 25.125 16.2188C25.498 16.2188 25.8556 16.0706 26.1194 15.8069C26.3831 15.5431 26.5312 15.1855 26.5312 14.8125C26.5312 11.6888 23.9625 9.39188 20.9062 8.84437V8.25Z" fill="#FA9118"/>
</svg>
