<svg width="24" height="24" viewBox="0 0 24 24" fill="none" xmlns="http://www.w3.org/2000/svg">
<path d="M16 17V19C16 19.5304 15.7893 20.0391 15.4142 20.4142C15.0391 20.7893 14.5304 21 14 21H5C4.46957 21 3.96086 20.7893 3.58579 20.4142C3.21071 20.0391 3 19.5304 3 19V5C3 4.46957 3.21071 3.96086 3.58579 3.58579C3.96086 3.21071 4.46957 3 5 3H14C14.5304 3 15.0391 3.21071 15.4142 3.58579C15.7893 3.96086 16 4.46957 16 5V7H14V5H5V19H14V17H16ZM18.5 6.5L17.086 7.914L20.172 11H10V13H20.172L17.086 16.086L18.5 17.5L24 12L18.5 6.5Z" fill="black"/>
</svg>
